<svg width="17" height="15" viewBox="0 0 17 15" fill="none" xmlns="http://www.w3.org/2000/svg">
<path d="M4.33928 11.3209H2.28124C1.73586 11.3209 1.21209 11.0948 0.82621 10.6929C0.440328 10.291 0.223206 9.74558 0.223206 9.17761C0.223206 7.30974 0.223206 4.61564 0.223206 2.74777C0.223206 2.1798 0.440328 1.63434 0.82621 1.23247C1.21209 0.830608 1.73586 0.604492 2.28124 0.604492C5.44444 0.604492 11.4663 0.604492 14.6295 0.604492C15.1748 0.604492 15.6986 0.830608 16.0845 1.23247C16.4704 1.63434 16.6875 2.1798 16.6875 2.74777C16.6875 4.61564 16.6875 7.30974 16.6875 9.17761C16.6875 9.74558 16.4704 10.291 16.0845 10.6929C15.6986 11.0948 15.1748 11.3209 14.6295 11.3209H8.45535L4.33928 14.5358V11.3209Z" fill="#686868"/>
</svg>
