<svg xmlns="http://www.w3.org/2000/svg" xmlns:svgjs="http://svgjs.com/svgjs" xmlns:xlink="http://www.w3.org/1999/xlink" width="288" height="288"><svg xmlns="http://www.w3.org/2000/svg" width="288" height="288" enable-background="new 0 0 489.242 489.242" viewBox="0 0 489.242 489.242"><path fill="#fff" d="M416.321 171.943c0-97.8-82.2-176.9-181-171.7-89.5 5.2-160.3 79.1-162.4 168.6 0 44.7 16.6 86.3 45.8 118.6 47.7 51.1 41.6 110.3 41.6 110.3 0 11.4 9.4 20.8 20.8 20.8h126.9c11.4 0 20.8-9.4 21.8-20.8 0 0-7-57.7 40.6-109.2C399.621 257.243 416.321 215.643 416.321 171.943zM288.321 377.943h-87.4c-2.1-42.7-20.8-84.3-51-116.5-22.9-25-34.3-57.2-34.3-90.5 1-68.7 54.1-124.8 122.8-129 74.9-4.2 137.3 56.2 137.3 130 0 32.3-12.5 64.5-35.4 88.4C309.121 293.643 290.421 335.243 288.321 377.943zM281.021 447.643h-73.9c-11.4 0-20.8 9.4-20.8 20.8s9.4 20.8 20.8 20.8h73.9c11.4 0 20.8-9.4 20.8-20.8C301.821 457.043 292.521 447.643 281.021 447.643z" class="color000 svgShape"/></svg></svg>