<svg width="56" height="55" viewBox="0 0 56 55" fill="none" xmlns="http://www.w3.org/2000/svg">
<path d="M51.4578 24.5625L50.0267 21.4375L46.9156 20L50.0267 18.5625L51.4578 15.4375L52.8889 18.5625L56 20L52.8889 21.4375L51.4578 24.5625ZM43.5556 13.625L41.3778 9L36.7733 6.8125L41.3778 4.625L43.5556 0L45.7333 4.625L50.3378 6.8125L45.7333 9L43.5556 13.625ZM18.6667 55C17.2563 55 16.0637 54.5104 15.0889 53.5312C14.1141 52.5521 13.6267 51.3542 13.6267 49.9375H23.7067C23.7067 51.3542 23.2193 52.5521 22.2444 53.5312C21.2696 54.5104 20.077 55 18.6667 55ZM8.58667 46.0625V42.3125H28.7467V46.0625H8.58667ZM8.89778 38.5C6.16 36.7083 3.99259 34.4688 2.39556 31.7812C0.798519 29.0937 0 26.0625 0 22.6875C0 17.6042 1.84593 13.2083 5.53778 9.5C9.22963 5.79167 13.6059 3.9375 18.6667 3.9375C23.7274 3.9375 28.1037 5.79167 31.7956 9.5C35.4874 13.2083 37.3333 17.6042 37.3333 22.6875C37.3333 26.0625 36.5452 29.0937 34.9689 31.7812C33.3926 34.4688 31.2148 36.7083 28.4356 38.5H8.89778ZM10.2667 34.75H27.1289C29.12 33.4167 30.6963 31.6875 31.8578 29.5625C33.0193 27.4375 33.6 25.1458 33.6 22.6875C33.6 18.5625 32.1378 15.0312 29.2133 12.0938C26.2889 9.15625 22.7733 7.6875 18.6667 7.6875C14.56 7.6875 11.0444 9.15625 8.12 12.0938C5.19556 15.0312 3.73333 18.5625 3.73333 22.6875C3.73333 25.1458 4.31407 27.4375 5.47556 29.5625C6.63704 31.6875 8.23407 33.4167 10.2667 34.75Z" fill="#EDAE93"/>
</svg>
